<svg width="20" height="25" viewBox="0 0 20 25" fill="none" xmlns="http://www.w3.org/2000/svg">
<path d="M0 3.75C0 1.67894 1.67894 0 3.75 0H17.5C18.8808 0 20 1.11929 20 2.5V16.25H3.125C1.96866 16.25 0.893812 16.5989 0 17.1973V3.75Z" fill="#64B4FC"/>
<path d="M0.0140375 21.5767C0.164187 19.9907 1.49969 18.75 3.125 18.75H20V22.5C20 23.8808 18.8808 25 17.5 25H3.125C1.39911 25 0 23.6009 0 21.875C0 21.8509 0.000274911 21.8269 0.000812411 21.8029C0.000974911 21.7956 0.0011751 21.7884 0.0013876 21.781C0.0034126 21.7124 0.00764999 21.6443 0.0140375 21.5767Z" fill="#64B4FC"/>
</svg>