<svg width="20" height="25" viewBox="0 0 20 25" fill="none" xmlns="http://www.w3.org/2000/svg">
<path fill-rule="evenodd" clip-rule="evenodd" d="M20 7.28553C20 6.62248 19.7366 5.9866 19.2677 5.51775L14.4823 0.732237C14.0134 0.263387 13.3775 0 12.7145 0H2.5C1.11929 0 0 1.11929 0 2.5V22.5C0 23.8806 1.11929 25 2.5 25H17.5C18.8808 25 20 23.8806 20 22.5V7.28553ZM14.375 11.25C15.0654 11.25 15.625 10.6904 15.625 9.99998C15.625 9.30964 15.0654 8.74999 14.375 8.74999H5.625C4.93465 8.74999 4.375 9.30964 4.375 9.99998C4.375 10.6904 4.93465 11.25 5.625 11.25H14.375ZM5.625 16.875C4.93465 16.875 4.375 16.3154 4.375 15.625C4.375 14.9346 4.93465 14.375 5.625 14.375H11.875C12.5654 14.375 13.125 14.9346 13.125 15.625C13.125 16.3154 12.5654 16.875 11.875 16.875H5.625Z" fill="#46EB9D"/>
</svg>