<?xml version="1.0" encoding="UTF-8"?>
<!DOCTYPE svg PUBLIC "-//W3C//DTD SVG 1.1//EN" "http://www.w3.org/Graphics/SVG/1.1/DTD/svg11.dtd">
<svg xmlns="http://www.w3.org/2000/svg" version="1.1" width="512px" height="512px" style="shape-rendering:geometricPrecision; text-rendering:geometricPrecision; image-rendering:optimizeQuality; fill-rule:evenodd; clip-rule:evenodd" xmlns:xlink="http://www.w3.org/1999/xlink">
<g><path style="opacity:0.98" fill="#09c3f8" d="M 347.5,42.5 C 290.997,42.9132 234.497,43.5799 178,44.5C 171.657,44.4996 165.491,44.1662 159.5,43.5C 207.52,22.4576 257.187,17.6242 308.5,29C 322.127,32.041 335.127,36.541 347.5,42.5 Z"/></g>
<g><path style="opacity:0.995" fill="#09bef7" d="M 347.5,42.5 C 363.73,48.7557 378.73,57.089 392.5,67.5C 305.837,69.2664 219.004,70.5997 132,71.5C 125.99,71.4995 120.157,71.1662 114.5,70.5C 128.34,59.7393 143.34,50.7393 159.5,43.5C 165.491,44.1662 171.657,44.4996 178,44.5C 234.497,43.5799 290.997,42.9132 347.5,42.5 Z"/></g>
<g><path style="opacity:0.997" fill="#08b8f6" d="M 392.5,67.5 C 403.745,75.0763 413.745,84.0763 422.5,94.5C 309.831,95.75 197.164,97.0834 84.5,98.5C 93.544,88.122 103.544,78.7887 114.5,70.5C 120.157,71.1662 125.99,71.4995 132,71.5C 219.004,70.5997 305.837,69.2664 392.5,67.5 Z"/></g>
<g><path style="opacity:0.997" fill="#08b1f5" d="M 422.5,94.5 C 432.253,103.352 440.586,113.352 447.5,124.5C 318.67,126.653 189.67,128.32 60.5,129.5C 66.9772,118.019 74.9772,107.685 84.5,98.5C 197.164,97.0834 309.831,95.75 422.5,94.5 Z"/></g>
<g><path style="opacity:0.998" fill="#09abf5" d="M 447.5,124.5 C 453.574,132.969 458.908,141.969 463.5,151.5C 433.838,152.178 404.172,152.511 374.5,152.5C 361.669,134.095 344.002,126.595 321.5,130C 317.021,131.271 312.688,132.938 308.5,135C 300.708,140.626 293.375,146.792 286.5,153.5C 206.15,154.229 125.816,155.229 45.5,156.5C 49.3053,146.73 54.3053,137.73 60.5,129.5C 189.67,128.32 318.67,126.653 447.5,124.5 Z"/></g>
<g><path style="opacity:1" fill="#fbfdfe" d="M 374.5,152.5 C 379.826,162.145 381.826,172.479 380.5,183.5C 379.505,191.481 376.838,198.815 372.5,205.5C 363.2,216.135 353.533,226.468 343.5,236.5C 334.167,245.167 325.167,254.167 316.5,263.5C 314.037,265.461 311.703,267.628 309.5,270C 303.29,274.252 298.623,273.086 295.5,266.5C 295.298,264.011 295.798,261.677 297,259.5C 304.036,252.632 310.869,245.632 317.5,238.5C 328.5,228.167 339.167,217.5 349.5,206.5C 358.657,199.853 363.324,190.853 363.5,179.5C 360.985,154.882 347.319,144.049 322.5,147C 318.221,148.473 314.221,150.473 310.5,153C 301.298,162.035 292.298,171.202 283.5,180.5C 274.5,188.833 265.833,197.5 257.5,206.5C 244.696,215.42 239.696,227.42 242.5,242.5C 243.912,249.991 247.412,256.324 253,261.5C 253.483,262.448 253.649,263.448 253.5,264.5C 252.608,270.952 248.941,273.452 242.5,272C 236.87,267.535 232.537,262.035 229.5,255.5C 223.061,239.058 224.394,223.392 233.5,208.5C 241.438,199.225 249.771,190.225 258.5,181.5C 268.167,172.5 277.5,163.167 286.5,153.5C 293.375,146.792 300.708,140.626 308.5,135C 312.688,132.938 317.021,131.271 321.5,130C 344.002,126.595 361.669,134.095 374.5,152.5 Z"/></g>
<g><path style="opacity:0.998" fill="#09a5f4" d="M 463.5,151.5 C 467.441,159.716 471.108,168.049 474.5,176.5C 443.709,178.215 412.709,179.215 381.5,179.5C 381.768,181.099 381.434,182.432 380.5,183.5C 381.826,172.479 379.826,162.145 374.5,152.5C 404.172,152.511 433.838,152.178 463.5,151.5 Z"/></g>
<g><path style="opacity:1" fill="#0ca6f4" d="M 363.5,179.5 C 336.818,179.241 310.152,179.574 283.5,180.5C 292.298,171.202 301.298,162.035 310.5,153C 314.221,150.473 318.221,148.473 322.5,147C 347.319,144.049 360.985,154.882 363.5,179.5 Z"/></g>
<g><path style="opacity:0.999" fill="#07a5f4" d="M 286.5,153.5 C 277.5,163.167 268.167,172.5 258.5,181.5C 248.339,180.833 238.005,180.5 227.5,180.5C 163.169,181.41 98.8353,182.076 34.5,182.5C 37.4047,173.435 41.0714,164.769 45.5,156.5C 125.816,155.229 206.15,154.229 286.5,153.5 Z"/></g>
<g><path style="opacity:0.998" fill="#089ff3" d="M 474.5,176.5 C 477.478,185.744 480.144,195.077 482.5,204.5C 445.836,205.038 409.169,205.372 372.5,205.5C 376.838,198.815 379.505,191.481 380.5,183.5C 381.434,182.432 381.768,181.099 381.5,179.5C 412.709,179.215 443.709,178.215 474.5,176.5 Z"/></g>
<g><path style="opacity:1" fill="#099ff3" d="M 363.5,179.5 C 363.324,190.853 358.657,199.853 349.5,206.5C 319.022,206.432 288.355,206.432 257.5,206.5C 265.833,197.5 274.5,188.833 283.5,180.5C 310.152,179.574 336.818,179.241 363.5,179.5 Z"/></g>
<g><path style="opacity:0.999" fill="#079ff3" d="M 258.5,181.5 C 249.771,190.225 241.438,199.225 233.5,208.5C 164.995,207.761 96.3285,208.095 27.5,209.5C 29.3643,200.376 31.6976,191.376 34.5,182.5C 98.8353,182.076 163.169,181.41 227.5,180.5C 238.005,180.5 248.339,180.833 258.5,181.5 Z"/></g>
<g><path style="opacity:0.998" fill="#0798f2" d="M 482.5,204.5 C 484.496,214.48 486.163,224.48 487.5,234.5C 439.578,236.075 391.578,236.742 343.5,236.5C 353.533,226.468 363.2,216.135 372.5,205.5C 409.169,205.372 445.836,205.038 482.5,204.5 Z"/></g>
<g><path style="opacity:1" fill="#0999f2" d="M 349.5,206.5 C 339.167,217.5 328.5,228.167 317.5,238.5C 302.167,237.167 286.833,237.167 271.5,238.5C 267.763,235.923 264.097,235.923 260.5,238.5C 254.69,237.51 248.69,237.177 242.5,237.5C 242.5,239.167 242.5,240.833 242.5,242.5C 239.696,227.42 244.696,215.42 257.5,206.5C 288.355,206.432 319.022,206.432 349.5,206.5 Z"/></g>
<g><path style="opacity:0.999" fill="#0898f2" d="M 233.5,208.5 C 224.394,223.392 223.061,239.058 229.5,255.5C 222.5,255.5 215.5,255.5 208.5,255.5C 210.833,252.997 212.999,250.331 215,247.5C 216.674,241.005 214.174,237.338 207.5,236.5C 205.307,236.719 203.307,237.385 201.5,238.5C 146.328,238.844 91.1617,239.51 36,240.5C 31.7523,240.47 27.5856,240.136 23.5,239.5C 24.3425,229.426 25.6758,219.426 27.5,209.5C 96.3285,208.095 164.995,207.761 233.5,208.5 Z"/></g>
<g><path style="opacity:0.999" fill="#0692f1" d="M 487.5,234.5 C 487.5,243.5 487.5,252.5 487.5,261.5C 430.516,262.593 373.516,263.259 316.5,263.5C 325.167,254.167 334.167,245.167 343.5,236.5C 391.578,236.742 439.578,236.075 487.5,234.5 Z"/></g>
<g><path style="opacity:1" fill="#fafcfe" d="M 208.5,255.5 C 196.167,267.167 184.167,279.167 172.5,291.5C 163.043,299.285 155.043,308.285 148.5,318.5C 142.206,339.084 148.873,353.917 168.5,363C 179.81,366.005 190.144,364.005 199.5,357C 212.369,344.298 225.035,331.465 237.5,318.5C 246.867,310.134 255.534,301.134 263.5,291.5C 269.115,283.348 270.782,274.348 268.5,264.5C 267.62,261.738 266.454,259.071 265,256.5C 262.277,253.443 259.944,250.11 258,246.5C 257.018,243.225 257.851,240.559 260.5,238.5C 264.097,235.923 267.763,235.923 271.5,238.5C 278.281,246.064 282.948,254.731 285.5,264.5C 285.916,273.352 284.916,282.019 282.5,290.5C 277.376,300.627 270.709,309.627 262.5,317.5C 251.833,327.5 241.5,337.833 231.5,348.5C 228.167,351.167 225.167,354.167 222.5,357.5C 216.013,364.665 208.68,370.665 200.5,375.5C 186.141,380.805 171.808,380.805 157.5,375.5C 146.415,369.746 138.415,361.079 133.5,349.5C 130.762,340.072 129.762,330.406 130.5,320.5C 134.188,309.47 140.188,299.803 148.5,291.5C 157.167,283.5 165.5,275.167 173.5,266.5C 183.167,257.5 192.5,248.167 201.5,238.5C 203.307,237.385 205.307,236.719 207.5,236.5C 214.174,237.338 216.674,241.005 215,247.5C 212.999,250.331 210.833,252.997 208.5,255.5 Z"/></g>
<g><path style="opacity:1" fill="#1394f1" d="M 260.5,238.5 C 257.851,240.559 257.018,243.225 258,246.5C 259.944,250.11 262.277,253.443 265,256.5C 266.454,259.071 267.62,261.738 268.5,264.5C 263.5,264.5 258.5,264.5 253.5,264.5C 253.649,263.448 253.483,262.448 253,261.5C 247.412,256.324 243.912,249.991 242.5,242.5C 242.5,240.833 242.5,239.167 242.5,237.5C 248.69,237.177 254.69,237.51 260.5,238.5 Z"/></g>
<g><path style="opacity:1" fill="#0c94f1" d="M 317.5,238.5 C 310.869,245.632 304.036,252.632 297,259.5C 295.798,261.677 295.298,264.011 295.5,266.5C 294.596,265.791 294.263,264.791 294.5,263.5C 291.455,263.508 288.455,263.841 285.5,264.5C 282.948,254.731 278.281,246.064 271.5,238.5C 286.833,237.167 302.167,237.167 317.5,238.5 Z"/></g>
<g><path style="opacity:0.999" fill="#0692f1" d="M 201.5,238.5 C 192.5,248.167 183.167,257.5 173.5,266.5C 123.593,265.481 73.593,265.814 23.5,267.5C 23.5,258.167 23.5,248.833 23.5,239.5C 27.5856,240.136 31.7523,240.47 36,240.5C 91.1617,239.51 146.328,238.844 201.5,238.5 Z"/></g>
<g><path style="opacity:0.998" fill="#078cf0" d="M 487.5,261.5 C 487.704,270.578 487.037,279.578 485.5,288.5C 417.834,289.201 350.167,289.868 282.5,290.5C 284.916,282.019 285.916,273.352 285.5,264.5C 288.455,263.841 291.455,263.508 294.5,263.5C 294.263,264.791 294.596,265.791 295.5,266.5C 298.623,273.086 303.29,274.252 309.5,270C 311.703,267.628 314.037,265.461 316.5,263.5C 373.516,263.259 430.516,262.593 487.5,261.5 Z"/></g>
<g><path style="opacity:1" fill="#098df0" d="M 208.5,255.5 C 215.5,255.5 222.5,255.5 229.5,255.5C 232.537,262.035 236.87,267.535 242.5,272C 248.941,273.452 252.608,270.952 253.5,264.5C 258.5,264.5 263.5,264.5 268.5,264.5C 270.782,274.348 269.115,283.348 263.5,291.5C 233.342,291.295 203.008,291.295 172.5,291.5C 184.167,279.167 196.167,267.167 208.5,255.5 Z"/></g>
<g><path style="opacity:0.999" fill="#068cf0" d="M 173.5,266.5 C 165.5,275.167 157.167,283.5 148.5,291.5C 115.863,292.312 83.196,292.812 50.5,293C 42.2357,292.911 34.2357,293.745 26.5,295.5C 24.8444,286.253 23.8444,276.92 23.5,267.5C 73.593,265.814 123.593,265.481 173.5,266.5 Z"/></g>
<g><path style="opacity:0.999" fill="#0686ef" d="M 485.5,288.5 C 484.218,297.575 482.552,306.575 480.5,315.5C 407.828,315.725 335.162,316.391 262.5,317.5C 270.709,309.627 277.376,300.627 282.5,290.5C 350.167,289.868 417.834,289.201 485.5,288.5 Z"/></g>
<g><path style="opacity:1" fill="#0786ef" d="M 263.5,291.5 C 255.534,301.134 246.867,310.134 237.5,318.5C 208.003,317.923 178.336,317.923 148.5,318.5C 155.043,308.285 163.043,299.285 172.5,291.5C 203.008,291.295 233.342,291.295 263.5,291.5 Z"/></g>
<g><path style="opacity:0.998" fill="#0686ef" d="M 148.5,291.5 C 140.188,299.803 134.188,309.47 130.5,320.5C 125.712,319.172 120.546,318.505 115,318.5C 87.5065,319.346 60.0065,319.679 32.5,319.5C 29.6276,311.831 27.6276,303.831 26.5,295.5C 34.2357,293.745 42.2357,292.911 50.5,293C 83.196,292.812 115.863,292.312 148.5,291.5 Z"/></g>
<g><path style="opacity:0.999" fill="#067fee" d="M 480.5,315.5 C 477.465,326.614 473.465,337.28 468.5,347.5C 454.171,346.833 439.671,346.5 425,346.5C 360.5,347.24 296,347.906 231.5,348.5C 241.5,337.833 251.833,327.5 262.5,317.5C 335.162,316.391 407.828,315.725 480.5,315.5 Z"/></g>
<g><path style="opacity:1" fill="#0a80ee" d="M 237.5,318.5 C 225.035,331.465 212.369,344.298 199.5,357C 190.144,364.005 179.81,366.005 168.5,363C 148.873,353.917 142.206,339.084 148.5,318.5C 178.336,317.923 208.003,317.923 237.5,318.5 Z"/></g>
<g><path style="opacity:0.996" fill="#0880ee" d="M 130.5,320.5 C 129.762,330.406 130.762,340.072 133.5,349.5C 103.502,349.967 73.5018,350.3 43.5,350.5C 38.4681,340.743 34.8014,330.409 32.5,319.5C 60.0065,319.679 87.5065,319.346 115,318.5C 120.546,318.505 125.712,319.172 130.5,320.5 Z"/></g>
<g><path style="opacity:0.999" fill="#057bee" d="M 468.5,347.5 C 468.293,350.241 467.293,352.574 465.5,354.5C 384.504,355.631 303.504,356.631 222.5,357.5C 225.167,354.167 228.167,351.167 231.5,348.5C 296,347.906 360.5,347.24 425,346.5C 439.671,346.5 454.171,346.833 468.5,347.5 Z"/></g>
<g><path style="opacity:0.999" fill="#0578ed" d="M 465.5,354.5 C 463.025,360.783 460.025,366.783 456.5,372.5C 371.169,373.596 285.835,374.596 200.5,375.5C 208.68,370.665 216.013,364.665 222.5,357.5C 303.504,356.631 384.504,355.631 465.5,354.5 Z"/></g>
<g><path style="opacity:0.996" fill="#0579ed" d="M 133.5,349.5 C 138.415,361.079 146.415,369.746 157.5,375.5C 124.176,376.391 90.8427,376.725 57.5,376.5C 51.8197,368.479 47.153,359.812 43.5,350.5C 73.5018,350.3 103.502,349.967 133.5,349.5 Z"/></g>
<g><path style="opacity:0.998" fill="#0573ec" d="M 456.5,372.5 C 451.301,382.355 444.968,391.355 437.5,399.5C 323.834,400.632 210.167,401.799 96.5,403C 89.9867,403.172 83.6534,403.672 77.5,404.5C 69.6765,396.007 63.0098,386.674 57.5,376.5C 90.8427,376.725 124.176,376.391 157.5,375.5C 171.808,380.805 186.141,380.805 200.5,375.5C 285.835,374.596 371.169,373.596 456.5,372.5 Z"/></g>
<g><path style="opacity:0.997" fill="#056deb" d="M 437.5,399.5 C 429.879,409.788 421.213,419.121 411.5,427.5C 399.338,426.833 387.005,426.5 374.5,426.5C 283.5,427.549 192.5,428.549 101.5,429.5C 92.8267,421.826 84.8267,413.493 77.5,404.5C 83.6534,403.672 89.9867,403.172 96.5,403C 210.167,401.799 323.834,400.632 437.5,399.5 Z"/></g>
<g><path style="opacity:0.996" fill="#0467ea" d="M 411.5,427.5 C 398.917,439.46 384.917,449.46 369.5,457.5C 294.504,458.535 219.504,459.201 144.5,459.5C 128.935,451.222 114.602,441.222 101.5,429.5C 192.5,428.549 283.5,427.549 374.5,426.5C 387.005,426.5 399.338,426.833 411.5,427.5 Z"/></g>
<g><path style="opacity:0.988" fill="#0460e9" d="M 369.5,457.5 C 334.438,478.101 296.438,488.101 255.5,487.5C 215.897,488.016 178.897,478.683 144.5,459.5C 219.504,459.201 294.504,458.535 369.5,457.5 Z"/></g>
</svg>
