<svg width="21" height="25" viewBox="0 0 21 25" fill="none" xmlns="http://www.w3.org/2000/svg">
<path fill-rule="evenodd" clip-rule="evenodd" d="M14.7835 1.85894C14.9892 1.25013 14.6616 0.585488 14.0362 0.430224C12.9039 0.149179 11.7195 0 10.5 0C9.28398 0 8.10283 0.148326 6.97361 0.427814C6.34804 0.58264 6.0199 1.24706 6.22522 1.85602C6.43049 2.46487 7.09135 2.78678 7.71911 2.64155C8.24495 2.51988 8.78383 2.43198 9.33333 2.38023V4.13364C4.08339 4.71206 0 9.1482 0 14.5349C0 20.3147 4.70101 25 10.5 25C16.299 25 21 20.3147 21 14.5349C21 12.064 20.1407 9.79301 18.7039 8.0027L19.7814 6.92879C20.237 6.47469 20.237 5.73845 19.7814 5.28435C19.3258 4.83026 18.5871 4.83026 18.1315 5.28435L17.054 6.35827C15.5434 5.15393 13.6919 4.35677 11.6667 4.13364V2.38023C12.219 2.43224 12.7606 2.52079 13.289 2.64344C13.9167 2.7891 14.5779 2.46765 14.7835 1.85894ZM9.33333 14.5349C9.33333 15.1771 9.85565 15.6977 10.5 15.6977C11.1444 15.6977 11.6667 15.1771 11.6667 14.5349V10.4651C11.6667 9.82293 11.1444 9.30233 10.5 9.30233C9.85565 9.30233 9.33333 9.82293 9.33333 10.4651V14.5349Z" fill="#FFB05B"/>
</svg>