<?xml version="1.0" encoding="UTF-8"?>
<!DOCTYPE svg PUBLIC "-//W3C//DTD SVG 1.1//EN" "http://www.w3.org/Graphics/SVG/1.1/DTD/svg11.dtd">
<svg xmlns="http://www.w3.org/2000/svg" version="1.1" width="512px" height="512px" style="shape-rendering:geometricPrecision; text-rendering:geometricPrecision; image-rendering:optimizeQuality; fill-rule:evenodd; clip-rule:evenodd" xmlns:xlink="http://www.w3.org/1999/xlink">
<g><path style="opacity:0.996" fill="#4dfc6e" d="M 449.5,54.5 C 320.167,55.8333 190.833,55.8333 61.5,54.5C 78.7171,37.7259 99.3837,27.5592 123.5,24C 167.476,22.8548 211.476,22.3548 255.5,22.5C 299.524,22.3548 343.524,22.8548 387.5,24C 411.616,27.5592 432.283,37.7259 449.5,54.5 Z"/></g>
<g><path style="opacity:0.998" fill="#47f868" d="M 61.5,54.5 C 190.833,55.8333 320.167,55.8333 449.5,54.5C 459.7,63.3625 468.033,73.6958 474.5,85.5C 407.069,86.1634 339.736,86.83 272.5,87.5C 261.161,86.2268 249.828,86.2268 238.5,87.5C 171.03,86.5054 103.697,86.172 36.5,86.5C 42.5494,74.1092 50.8828,63.4426 61.5,54.5 Z"/></g>
<g><path style="opacity:1" fill="#fdfefd" d="M 272.5,87.5 C 301.708,91.0099 328.375,101.01 352.5,117.5C 373.854,133.85 390.854,153.85 403.5,177.5C 416.801,204.966 422.468,233.966 420.5,264.5C 418.013,292.627 409.347,318.627 394.5,342.5C 383.286,358.717 369.953,373.051 354.5,385.5C 297.518,423.228 238.018,427.562 176,398.5C 147.513,405.913 119.013,413.247 90.5,420.5C 92.0083,412.8 93.675,405.133 95.5,397.5C 101.16,376.862 106.827,356.196 112.5,335.5C 106.645,324.797 101.645,313.797 97.5,302.5C 89.8416,274.133 88.5082,245.466 93.5,216.5C 100.934,186.63 114.934,160.297 135.5,137.5C 163.836,108.834 198.169,92.1673 238.5,87.5C 249.828,86.2268 261.161,86.2268 272.5,87.5 Z"/></g>
<g><path style="opacity:0.998" fill="#40f462" d="M 36.5,86.5 C 103.697,86.172 171.03,86.5054 238.5,87.5C 198.169,92.1673 163.836,108.834 135.5,137.5C 98.0037,136.502 60.337,136.168 22.5,136.5C 23.3452,118.648 28.0118,101.981 36.5,86.5 Z"/></g>
<g><path style="opacity:0.998" fill="#41f563" d="M 474.5,85.5 C 479.581,95.3292 483.248,105.663 485.5,116.5C 440.997,116.168 396.664,116.501 352.5,117.5C 328.375,101.01 301.708,91.0099 272.5,87.5C 339.736,86.83 407.069,86.1634 474.5,85.5 Z"/></g>
<g><path style="opacity:0.997" fill="#3af15d" d="M 485.5,116.5 C 486.747,120.712 487.58,125.045 488,129.5C 488.5,144.83 488.667,160.163 488.5,175.5C 459.814,174.842 431.48,175.508 403.5,177.5C 390.854,153.85 373.854,133.85 352.5,117.5C 396.664,116.501 440.997,116.168 485.5,116.5 Z"/></g>
<g><path style="opacity:1" fill="#3cf15e" d="M 344.5,147.5 C 285.167,147.5 225.833,147.5 166.5,147.5C 206.327,114.872 250.994,106.372 300.5,122C 316.934,127.708 331.601,136.208 344.5,147.5 Z"/></g>
<g><path style="opacity:0.997" fill="#35ee58" d="M 22.5,136.5 C 60.337,136.168 98.0037,136.502 135.5,137.5C 114.934,160.297 100.934,186.63 93.5,216.5C 70.3393,215.502 47.006,215.169 23.5,215.5C 23.7947,213.265 23.4614,211.265 22.5,209.5C 22.5,185.167 22.5,160.833 22.5,136.5 Z"/></g>
<g><path style="opacity:1" fill="#33ec57" d="M 166.5,147.5 C 225.833,147.5 285.167,147.5 344.5,147.5C 366.359,165.736 381.026,188.736 388.5,216.5C 335.905,215.505 283.238,215.171 230.5,215.5C 230.662,213.473 230.495,211.473 230,209.5C 222.921,200.346 216.587,190.68 211,180.5C 208.413,175.932 204.579,174.432 199.5,176C 195.021,177.271 190.688,178.938 186.5,181C 172.283,196.039 168.949,213.206 176.5,232.5C 157.576,231.513 138.576,231.18 119.5,231.5C 124.827,197.494 140.493,169.494 166.5,147.5 Z"/></g>
<g><path style="opacity:1" fill="#fdfefd" d="M 230.5,215.5 C 224.924,221.578 219.091,227.578 213,233.5C 211.033,236.998 211.367,240.332 214,243.5C 228.318,267.828 248.651,284.828 275,294.5C 276.167,294.333 277.333,294.167 278.5,294C 283.929,287.148 289.596,280.481 295.5,274C 297.833,273.333 300.167,273.333 302.5,274C 311.243,279.038 320.243,283.538 329.5,287.5C 332.53,289.109 335.363,291.109 338,293.5C 339.866,306.921 335.033,317.087 323.5,324C 313.377,330.486 302.377,332.819 290.5,331C 267.845,326.461 247.512,317.127 229.5,303C 223.295,297.291 216.961,291.791 210.5,286.5C 195.141,271.133 183.808,253.133 176.5,232.5C 168.949,213.206 172.283,196.039 186.5,181C 190.688,178.938 195.021,177.271 199.5,176C 204.579,174.432 208.413,175.932 211,180.5C 216.587,190.68 222.921,200.346 230,209.5C 230.495,211.473 230.662,213.473 230.5,215.5 Z"/></g>
<g><path style="opacity:0.997" fill="#2be850" d="M 488.5,175.5 C 488.5,204.5 488.5,233.5 488.5,262.5C 465.603,261.86 442.936,262.527 420.5,264.5C 422.468,233.966 416.801,204.966 403.5,177.5C 431.48,175.508 459.814,174.842 488.5,175.5 Z"/></g>
<g><path style="opacity:1" fill="#26e44b" d="M 119.5,231.5 C 138.576,231.18 157.576,231.513 176.5,232.5C 183.808,253.133 195.141,271.133 210.5,286.5C 181.167,286.5 151.833,286.5 122.5,286.5C 117.478,268.392 116.478,250.059 119.5,231.5 Z"/></g>
<g><path style="opacity:1" fill="#26e44b" d="M 230.5,215.5 C 283.238,215.171 335.905,215.505 388.5,216.5C 395.083,239.921 395.083,263.254 388.5,286.5C 368.66,286.17 348.993,286.503 329.5,287.5C 320.243,283.538 311.243,279.038 302.5,274C 300.167,273.333 297.833,273.333 295.5,274C 289.596,280.481 283.929,287.148 278.5,294C 277.333,294.167 276.167,294.333 275,294.5C 248.651,284.828 228.318,267.828 214,243.5C 211.367,240.332 211.033,236.998 213,233.5C 219.091,227.578 224.924,221.578 230.5,215.5 Z"/></g>
<g><path style="opacity:0.997" fill="#24e34a" d="M 22.5,209.5 C 23.4614,211.265 23.7947,213.265 23.5,215.5C 47.006,215.169 70.3393,215.502 93.5,216.5C 88.5082,245.466 89.8416,274.133 97.5,302.5C 72.5,302.5 47.5,302.5 22.5,302.5C 22.5,271.5 22.5,240.5 22.5,209.5 Z"/></g>
<g><path style="opacity:1" fill="#1bde42" d="M 122.5,286.5 C 151.833,286.5 181.167,286.5 210.5,286.5C 216.961,291.791 223.295,297.291 229.5,303C 247.512,317.127 267.845,326.461 290.5,331C 302.377,332.819 313.377,330.486 323.5,324C 335.033,317.087 339.866,306.921 338,293.5C 335.363,291.109 332.53,289.109 329.5,287.5C 348.993,286.503 368.66,286.17 388.5,286.5C 383.169,307.838 373.169,326.505 358.5,342.5C 285.833,342.5 213.167,342.5 140.5,342.5C 141.656,338.555 142.156,334.555 142,330.5C 133.061,316.952 126.561,302.285 122.5,286.5 Z"/></g>
<g><path style="opacity:0.997" fill="#1bdf43" d="M 488.5,262.5 C 488.5,289.167 488.5,315.833 488.5,342.5C 457.167,342.5 425.833,342.5 394.5,342.5C 409.347,318.627 418.013,292.627 420.5,264.5C 442.936,262.527 465.603,261.86 488.5,262.5 Z"/></g>
<g><path style="opacity:0.996" fill="#13da3c" d="M 22.5,302.5 C 47.5,302.5 72.5,302.5 97.5,302.5C 101.645,313.797 106.645,324.797 112.5,335.5C 106.827,356.196 101.16,376.862 95.5,397.5C 72.3273,397.169 49.3273,397.502 26.5,398.5C 24.525,393.129 23.3583,387.462 23,381.5C 22.5,355.169 22.3334,328.835 22.5,302.5 Z"/></g>
<g><path style="opacity:1" fill="#15da3c" d="M 140.5,342.5 C 213.167,342.5 285.833,342.5 358.5,342.5C 339.951,364.296 316.618,378.796 288.5,386C 258.734,392.615 229.734,390.282 201.5,379C 194.236,375.2 186.903,371.7 179.5,368.5C 163.273,372.645 147.106,376.978 131,381.5C 133.371,368.347 136.538,355.347 140.5,342.5 Z"/></g>
<g><path style="opacity:0.997" fill="#12d93b" d="M 394.5,342.5 C 425.833,342.5 457.167,342.5 488.5,342.5C 488.781,356.536 488.448,370.536 487.5,384.5C 443.239,385.494 398.905,385.828 354.5,385.5C 369.953,373.051 383.286,358.717 394.5,342.5 Z"/></g>
<g><path style="opacity:0.999" fill="#09d434" d="M 487.5,384.5 C 484.307,408.877 474.641,430.211 458.5,448.5C 323.167,448.5 187.833,448.5 52.5,448.5C 39.6528,434.143 30.9861,417.476 26.5,398.5C 49.3273,397.502 72.3273,397.169 95.5,397.5C 93.675,405.133 92.0083,412.8 90.5,420.5C 119.013,413.247 147.513,405.913 176,398.5C 238.018,427.562 297.518,423.228 354.5,385.5C 398.905,385.828 443.239,385.494 487.5,384.5 Z"/></g>
<g><path style="opacity:0.995" fill="#02d12f" d="M 52.5,448.5 C 187.833,448.5 323.167,448.5 458.5,448.5C 440.006,469.088 417.006,481.921 389.5,487C 344.865,488.151 300.198,488.651 255.5,488.5C 210.473,488.648 165.473,488.148 120.5,487C 93.4178,481.635 70.7511,468.801 52.5,448.5 Z"/></g>
</svg>
